<?xml version="1.0" encoding="UTF-8"?>
<svg version="1.1" xmlns="http://www.w3.org/2000/svg" width="80" height="80">
<path d="M0 0 C2.42102911 1.18098981 3.82068009 2.2331559 5.5625 4.25 C5.871875 3.2909375 5.871875 3.2909375 6.1875 2.3125 C7.5625 0.25 7.5625 0.25 10.6875 -0.5 C11.63625 -0.5825 12.585 -0.665 13.5625 -0.75 C14.0575 1.725 14.0575 1.725 14.5625 4.25 C16.0165625 4.3428125 16.0165625 4.3428125 17.5 4.4375 C24.49773502 5.49776288 29.90645129 9.03122587 34.375 14.4375 C43.1280378 26.87816021 44.58531559 43.284275 43.5625 58.25 C43.0675 59.24 43.0675 59.24 42.5625 60.25 C28.0425 60.25 13.5225 60.25 -1.4375 60.25 C-2.48920973 54.99145135 -2.12490297 52.64673751 0.5625 48.25 C2.23884058 46.23095925 3.99704936 44.3105198 5.77734375 42.3828125 C8.61463551 38.99296283 10.58537596 35.18602574 12.5625 31.25 C11.93601562 31.7553125 11.30953125 32.260625 10.6640625 32.78125 C9.84679687 33.4309375 9.02953125 34.080625 8.1875 34.75 C7.37539063 35.3996875 6.56328125 36.049375 5.7265625 36.71875 C3.5625 38.25 3.5625 38.25 1.5625 38.25 C1.5625 38.91 1.5625 39.57 1.5625 40.25 C0.9025 40.25 0.2425 40.25 -0.4375 40.25 C-0.746875 40.889375 -1.05625 41.52875 -1.375 42.1875 C-2.4375 44.25 -2.4375 44.25 -3.4375 45.25 C-7.98097375 45.29137954 -12.12131202 45.08465579 -16 42.625 C-17.96108805 39.38494148 -18.25252033 37.04208331 -18.4375 33.25 C-17.59239016 30.43010362 -16.28478993 27.95134146 -14.875 25.375 C-14.51019531 24.67246094 -14.14539063 23.96992187 -13.76953125 23.24609375 C-11.72716028 19.38272768 -9.50931464 15.79009977 -6.9375 12.25 C-3.98606726 8.11001732 -3.89186458 5.25165806 -4.4375 0.25 C-2.4375 -0.75 -2.4375 -0.75 0 0 Z " fill="#F9F9F9" transform="translate(26.4375,11.75)"/>
<path d="M0 0 C2.42102911 1.18098981 3.82068009 2.2331559 5.5625 4.25 C5.871875 3.2909375 5.871875 3.2909375 6.1875 2.3125 C7.5625 0.25 7.5625 0.25 10.6875 -0.5 C11.63625 -0.5825 12.585 -0.665 13.5625 -0.75 C14.0575 1.725 14.0575 1.725 14.5625 4.25 C16.0165625 4.3428125 16.0165625 4.3428125 17.5 4.4375 C24.49773502 5.49776288 29.90645129 9.03122587 34.375 14.4375 C43.1280378 26.87816021 44.58531559 43.284275 43.5625 58.25 C43.0675 59.24 43.0675 59.24 42.5625 60.25 C28.0425 60.25 13.5225 60.25 -1.4375 60.25 C-2.48920973 54.99145135 -2.12490297 52.64673751 0.5625 48.25 C2.23884058 46.23095925 3.99704936 44.3105198 5.77734375 42.3828125 C8.61463551 38.99296283 10.58537596 35.18602574 12.5625 31.25 C11.93601562 31.7553125 11.30953125 32.260625 10.6640625 32.78125 C9.84679687 33.4309375 9.02953125 34.080625 8.1875 34.75 C7.37539063 35.3996875 6.56328125 36.049375 5.7265625 36.71875 C3.5625 38.25 3.5625 38.25 1.5625 38.25 C1.5625 38.91 1.5625 39.57 1.5625 40.25 C0.9025 40.25 0.2425 40.25 -0.4375 40.25 C-0.746875 40.889375 -1.05625 41.52875 -1.375 42.1875 C-2.4375 44.25 -2.4375 44.25 -3.4375 45.25 C-7.98097375 45.29137954 -12.12131202 45.08465579 -16 42.625 C-17.96108805 39.38494148 -18.25252033 37.04208331 -18.4375 33.25 C-17.59239016 30.43010362 -16.28478993 27.95134146 -14.875 25.375 C-14.51019531 24.67246094 -14.14539063 23.96992187 -13.76953125 23.24609375 C-11.72716028 19.38272768 -9.50931464 15.79009977 -6.9375 12.25 C-3.98606726 8.11001732 -3.89186458 5.25165806 -4.4375 0.25 C-2.4375 -0.75 -2.4375 -0.75 0 0 Z M-1.4375 3.25 C-1.293125 4.19875 -1.14875 5.1475 -1 6.125 C-0.99033881 10.94593527 -3.69033997 13.77402786 -6.48046875 17.49609375 C-10.89067407 23.70207129 -15.24515455 30.41685724 -14.4375 38.25 C-13.7775 38.91 -13.1175 39.57 -12.4375 40.25 C-11.1175 40.25 -9.7975 40.25 -8.4375 40.25 C-8.4375 39.26 -8.4375 38.27 -8.4375 37.25 C-7.1175 37.25 -5.7975 37.25 -4.4375 37.25 C-4.1075 38.24 -3.7775 39.23 -3.4375 40.25 C-2.880625 39.75371094 -2.32375 39.25742187 -1.75 38.74609375 C-0.986875 38.06675781 -0.22375 37.38742188 0.5625 36.6875 C1.3771875 35.95660156 2.191875 35.22570312 3.03125 34.47265625 C4.62700517 33.07144531 6.24931743 31.69940136 7.90625 30.37109375 C12.32547381 26.87323329 12.32547381 26.87323329 14.5625 21.8125 C14.5625 20.966875 14.5625 20.12125 14.5625 19.25 C15.5525 19.25 16.5425 19.25 17.5625 19.25 C17.07523438 20.32507812 17.07523438 20.32507812 16.578125 21.421875 C15.53842184 24.31704843 15.36608345 26.44574329 15.3125 29.5 C14.66095963 38.00431639 9.48122567 43.60219064 3.76171875 49.546875 C2.14131126 51.60444301 2.14131126 51.60444301 1.5625 56.25 C13.7725 56.25 25.9825 56.25 38.5625 56.25 C39.0197988 33.93885697 39.0197988 33.93885697 29.5625 14.25 C25.19526352 9.88276352 19.71772664 7.44720166 13.5625 7.0625 C12.9025 7.124375 12.2425 7.18625 11.5625 7.25 C11.5625 5.93 11.5625 4.61 11.5625 3.25 C9.5825 4.24 9.5825 4.24 7.5625 5.25 C7.5625 5.91 7.5625 6.57 7.5625 7.25 C5.5825 7.25 3.6025 7.25 1.5625 7.25 C0.9025 5.93 0.2425 4.61 -0.4375 3.25 C-0.7675 3.25 -1.0975 3.25 -1.4375 3.25 Z " fill="#060606" transform="translate(26.4375,11.75)"/>
<path d="M0 0 C0 2.64 0 5.28 0 8 C-4.875 7.125 -4.875 7.125 -6 6 C-6.04080783 4.00041636 -6.04254356 1.99954746 -6 0 C-3 -1 -3 -1 0 0 Z " fill="#9F9F9F" transform="translate(18,44)"/>
<path d="M0 0 C0.99 0.33 1.98 0.66 3 1 C2.25 3.4375 2.25 3.4375 1 6 C-1.125 6.8125 -1.125 6.8125 -3 7 C-2.25 2.25 -2.25 2.25 0 0 Z " fill="#101010" transform="translate(26,24)"/>
</svg>
